<svg width="1024" height="1024" viewBox="0 0 1024 1024" fill="none" xmlns="http://www.w3.org/2000/svg">
<path d="M888 860.924C888 905.868 857.104 945 817.302 945H396.465C356.663 945 323 905.868 323 860.924V267.276C323 222.352 356.663 188 396.465 188H817.302C857.104 188 888 222.352 888 267.276V860.924Z" fill="#CBE2EE"/>
<path d="M678 783.939C678 831.005 648.368 872 610.191 872H206.48C168.303 872 136 831.005 136 783.939V162.035C136 114.969 168.303 79 206.48 79H610.191C648.368 79 678 114.969 678 162.035V783.939Z" stroke="#1F2937" stroke-width="18.1653" stroke-miterlimit="10"/>
<path d="M555 231H249V167H555V231Z" stroke="#1F2937" stroke-width="13.7048" stroke-miterlimit="10"/>
<rect x="593" y="382" width="171" height="185" fill="#CBE2EE"/>
<path d="M844.714 277.256C844.484 276.187 843.941 275.202 843.149 274.419C842.357 273.635 841.349 273.084 840.242 272.831C766.458 255.518 595.974 317.213 503.608 405.819C487.133 421.502 472.115 438.532 458.722 456.717C430.239 454.299 401.756 456.318 377.48 466.474C308.986 495.405 289.044 570.894 283.489 603.367C283.174 605.145 283.293 606.968 283.836 608.694C284.38 610.42 285.333 612.001 286.621 613.313C287.909 614.626 289.497 615.633 291.26 616.257C293.022 616.881 294.912 617.104 296.779 616.908L406.769 605.265C406.848 613.224 407.348 621.173 408.269 629.082C408.822 634.575 411.363 639.708 415.449 643.59L458.042 684.369C462.091 688.286 467.438 690.723 473.159 691.26C481.355 692.14 489.592 692.62 497.838 692.699L485.769 798.123C485.568 799.914 485.802 801.726 486.453 803.417C487.104 805.107 488.154 806.63 489.521 807.866C490.887 809.101 492.534 810.016 494.331 810.539C496.128 811.061 498.027 811.177 499.879 810.877C533.653 805.679 612.451 786.541 642.421 720.808C653.003 697.511 655.17 670.309 652.726 643.107C671.721 630.253 689.513 615.836 705.901 600.018C798.557 511.545 862.477 351.584 844.714 277.256ZM613.459 494.474C604.999 486.36 599.236 476.02 596.899 464.762C594.563 453.504 595.758 441.833 600.333 431.227C604.909 420.621 612.659 411.556 622.604 405.178C632.549 398.799 644.242 395.395 656.203 395.395C668.164 395.395 679.857 398.799 689.802 405.178C699.747 411.556 707.497 420.621 712.073 431.227C716.648 441.833 717.843 453.504 715.507 464.762C713.171 476.02 707.408 486.36 698.947 494.474C693.337 499.866 686.674 504.143 679.339 507.062C672.005 509.98 664.143 511.483 656.203 511.483C648.263 511.483 640.401 509.98 633.067 507.062C625.732 504.143 619.07 499.866 613.459 494.474Z" fill="#1F2937"/>
<path d="M455.145 713.905C448.241 720.542 437.168 723.129 423.839 725.342C393.895 730.238 367.452 705.405 372.831 676.354C374.885 665.34 380.957 649.901 384.736 646.274C385.562 645.497 386.112 644.489 386.308 643.395C386.503 642.3 386.334 641.175 385.825 640.178C385.316 639.18 384.493 638.363 383.472 637.84C382.451 637.318 381.284 637.117 380.138 637.267C363.393 639.233 347.814 646.519 335.883 657.965C306.265 686.412 303.469 791.969 303.469 791.969C303.469 791.969 413.522 789.285 443.139 760.837C455.102 749.396 462.704 734.423 464.719 718.33C465.185 713.276 458.773 710.266 455.145 713.905Z" fill="#1F2937"/>
</svg>
