<svg width="1024" height="1024" viewBox="0 0 1024 1024" fill="none" xmlns="http://www.w3.org/2000/svg">
    <path
        d="M890.018 847.944H764.071C752.936 847.944 742.258 843.516 734.385 835.634C726.512 827.753 722.089 817.063 722.089 805.916V679.832C772.199 679.37 820.491 660.975 858.235 627.974C895.979 594.973 920.684 549.543 927.885 499.896C935.085 450.249 924.306 399.662 897.496 357.278C870.686 314.894 829.613 283.51 781.703 268.799C756.052 209.792 711.781 160.833 655.675 129.423C599.57 98.0137 534.724 85.8868 471.075 94.9008C407.426 103.915 348.485 133.573 303.284 179.329C258.083 225.086 229.115 284.418 220.82 348.232C180.793 357.828 145.681 381.805 122.151 415.611C98.6201 449.416 88.3106 490.695 93.1797 531.609C98.0487 572.523 117.757 610.222 148.563 637.546C179.368 664.871 219.125 679.919 260.283 679.832H302.266V805.916C302.266 817.063 297.842 827.753 289.969 835.634C282.096 843.516 271.418 847.944 260.283 847.944H134.336C123.202 847.944 112.524 852.372 104.65 860.254C96.7773 868.136 92.3541 878.826 92.3541 889.972C92.3541 901.119 96.7773 911.809 104.65 919.69C112.524 927.572 123.202 932 134.336 932H260.283C293.686 932 325.722 918.716 349.341 895.071C372.961 871.426 386.23 839.356 386.23 805.916V679.832H470.195V889.972C470.195 901.119 474.618 911.809 482.491 919.69C490.364 927.572 501.043 932 512.177 932C523.311 932 533.99 927.572 541.863 919.69C549.736 911.809 554.159 901.119 554.159 889.972V679.832H638.124V805.916C638.124 839.356 651.393 871.426 675.013 895.071C698.633 918.716 730.668 932 764.071 932H890.018C901.152 932 911.831 927.572 919.704 919.69C927.577 911.809 932 901.119 932 889.972C932 878.826 927.577 868.136 919.704 860.254C911.831 852.372 901.152 847.944 890.018 847.944ZM260.283 595.777C238.015 595.777 216.658 586.921 200.911 571.157C185.165 555.394 176.319 534.014 176.319 511.721C176.319 489.428 185.165 468.048 200.911 452.284C216.658 436.521 238.015 427.665 260.283 427.665C271.418 427.665 282.096 423.237 289.969 415.355C297.842 407.473 302.266 396.783 302.266 385.637C302.373 335.93 320.078 287.87 352.236 249.995C384.394 212.121 428.922 186.885 477.909 178.77C526.896 170.656 577.171 180.188 619.802 205.674C662.432 231.16 694.658 270.949 710.753 317.972C713.153 325.194 717.467 331.628 723.234 336.588C729.001 341.547 736.006 344.845 743.499 346.131C772.642 351.163 799.086 366.301 818.199 388.893C837.312 411.484 847.874 440.088 848.035 469.693C848.035 503.132 834.766 535.202 811.146 558.848C787.527 582.493 755.492 595.777 722.089 595.777H260.283Z"
        fill="#083344" />
</svg>