<svg width="525" height="525" viewBox="0 0 525 525" fill="none" xmlns="http://www.w3.org/2000/svg">
<path d="M77.2193 317.461C76.4045 310.238 75.9927 302.899 75.9927 295.453C75.9927 218.29 120.728 151.767 185.246 121.296" stroke="#81BDC7" stroke-width="25.5356" stroke-miterlimit="10" stroke-linecap="round"/>
<path d="M362.26 459.595C333.76 477.216 300.309 487.355 264.536 487.355C228.729 487.355 195.26 477.198 166.751 459.56" stroke="#EF3744" stroke-width="25.5356" stroke-miterlimit="10" stroke-linecap="round"/>
<path d="M348.742 123.704C410.606 155.191 453.081 220.27 453.081 295.453" stroke="#FABE2D" stroke-width="25.5356" stroke-miterlimit="10" stroke-linecap="round"/>
<path d="M103.845 384.573C114.577 385.171 123.383 375.29 122.839 363.261C122.375 352.952 114.911 344.588 105.72 344.061C94.9873 343.455 86.1733 353.344 86.7253 365.383C87.1896 375.682 94.6629 384.056 103.845 384.573Z" fill="#81BDC7"/>
<path d="M138.014 446.504C142.044 446.504 145.041 442.01 144.252 437.204C140.897 416.765 127.203 398.475 110.801 398.475C94.4089 398.475 80.715 416.765 77.3594 437.204C76.5709 442.01 79.5672 446.504 83.5974 446.504H138.014Z" fill="#81BDC7"/>
<path d="M97.852 389.406C113.368 390.2 126.107 377.225 125.319 361.433C124.644 347.914 113.85 336.919 100.559 336.241C85.0428 335.438 72.2865 348.422 73.0838 364.215C73.7672 377.742 84.5698 388.72 97.852 389.406Z" stroke="#383D4D" stroke-width="14.0557" stroke-miterlimit="10"/>
<path d="M137.427 446.763C142.868 446.763 146.916 441.689 145.847 436.258C141.317 413.162 122.805 392.501 100.638 392.501C78.4811 392.501 59.9596 413.162 55.43 436.258C54.3611 441.689 58.4175 446.763 63.8583 446.763H137.427Z" stroke="#383D4D" stroke-width="14.0557" stroke-miterlimit="10"/>
<path d="M426.85 384.573C437.582 385.171 446.387 375.29 445.844 363.261C445.379 352.952 437.915 344.588 428.724 344.061C417.992 343.455 409.178 353.344 409.73 365.383C410.203 375.682 417.668 384.056 426.85 384.573Z" fill="#81BDC7"/>
<path d="M461.018 446.504C465.048 446.504 468.045 442.01 467.256 437.204C463.901 416.765 450.206 398.475 433.805 398.475C417.413 398.475 403.719 416.765 400.363 437.204C399.575 442.01 402.571 446.504 406.601 446.504H461.018Z" fill="#81BDC7"/>
<path d="M420.856 389.406C436.372 390.2 449.111 377.225 448.323 361.433C447.648 347.914 436.855 336.919 423.564 336.241C408.047 335.438 395.299 348.422 396.088 364.215C396.771 377.742 407.574 388.72 420.856 389.406Z" stroke="#383D4D" stroke-width="14.0557" stroke-miterlimit="10"/>
<path d="M460.431 446.763C465.871 446.763 469.919 441.689 468.85 436.258C464.321 413.162 445.808 392.501 423.642 392.501C401.484 392.501 382.963 413.162 378.433 436.258C377.365 441.689 381.421 446.763 386.862 446.763H460.431Z" stroke="#383D4D" stroke-width="14.0557" stroke-miterlimit="10"/>
<path d="M301.614 147.638C305.645 147.638 308.641 143.144 307.852 138.337C304.497 117.89 290.803 99.5999 274.402 99.5999C258.009 99.5999 244.315 117.889 240.96 138.328C240.171 143.144 243.168 147.638 247.189 147.638H301.614Z" fill="#81BDC7"/>
<path d="M261.453 90.5311C276.969 91.3247 289.708 78.3499 288.919 62.5572C288.245 49.0385 277.451 38.0522 264.16 37.3656C248.643 36.563 235.887 49.5468 236.684 65.3484C237.368 78.8672 248.17 89.8534 261.453 90.5311Z" stroke="#383D4D" stroke-width="14.0557" stroke-miterlimit="10"/>
<path d="M301.027 147.888C306.468 147.888 310.516 142.814 309.447 137.383C304.917 114.296 286.396 93.6343 264.239 93.6343C242.081 93.6343 223.56 114.296 219.03 137.383C217.961 142.814 222.018 147.888 227.458 147.888H301.027Z" stroke="#383D4D" stroke-width="14.0557" stroke-miterlimit="10"/>
<path d="M344.256 274.8C343.782 260.523 332.726 249.091 319.137 249.091C315.317 249.091 311.69 250.001 308.44 251.624C301.93 227.993 280.92 210.693 256.012 210.693C225.908 210.693 201.499 235.992 201.499 267.167C201.499 269.557 201.647 271.697 201.928 274.247H201.507C178.93 274.247 160.627 291.279 160.627 312.191C160.627 333.093 178.93 350.125 201.507 350.125H336.949C359.527 350.125 377.829 333.066 377.829 312.164C377.829 293.571 363.347 277.984 344.256 274.8Z" fill="#F8FCFD"/>
<path d="M344.361 286.107C343.976 274.372 334.89 264.991 323.728 264.991C320.583 264.991 317.604 265.731 314.941 267.069C309.588 247.656 292.328 233.432 271.861 233.432C247.128 233.432 227.073 254.219 227.073 279.838C227.073 281.8 227.196 283.557 227.424 285.653H227.082C208.526 285.653 193.491 299.653 193.491 316.828C193.491 334.003 208.526 348.003 227.082 348.003H338.36C356.916 348.003 371.951 333.985 371.951 316.81C371.951 301.525 360.053 288.729 344.361 286.107Z" fill="#CBE2EE"/>
<path d="M344.256 274.8C343.782 260.523 332.726 249.091 319.137 249.091C315.317 249.091 311.69 250.001 308.44 251.624C301.93 227.993 280.92 210.693 256.012 210.693C225.908 210.693 201.499 235.992 201.499 267.167C201.499 269.557 201.647 271.697 201.928 274.247H201.507C178.93 274.247 160.627 291.279 160.627 312.191C160.627 333.093 178.93 350.125 201.507 350.125H336.949C359.527 350.125 377.829 333.066 377.829 312.164C377.829 293.571 363.347 277.984 344.256 274.8Z" stroke="#383D4D" stroke-width="16.4651" stroke-miterlimit="10"/>
<path d="M291.092 291.654L275.935 273.079L260.778 253.88L245.612 273.079L230.455 291.654H246.077V325.513C246.077 327.778 247.802 329.624 249.94 329.624H271.607C273.745 329.624 275.479 327.778 275.479 325.513V291.654H291.092Z" fill="#59C13A"/>
<path d="M291.092 291.654L275.935 273.079L260.778 253.88L245.612 273.079L230.455 291.654H246.077V325.513C246.077 327.778 247.802 329.624 249.94 329.624H271.607C273.745 329.624 275.479 327.778 275.479 325.513V291.654H291.092Z" stroke="#383D4D" stroke-width="11.1995" stroke-miterlimit="10"/>
</svg>
