<svg width="525" height="525" viewBox="0 0 525 525" fill="none" xmlns="http://www.w3.org/2000/svg">
<path d="M90.4114 164.443V296.84H245.592V164.443H90.4114Z" fill="#CBE2EE"/>
<path d="M239.407 262.633V225.653L196.266 188.565L176.965 209.45L239.407 262.633Z" fill="#669787"/>
<path d="M238.435 266.155L152.985 188.565L96.019 238.44V266.601" fill="#669787"/>
<path d="M262.16 290.972V416.636H417.104V290.972H262.16Z" fill="#CBE2EE"/>
<path d="M260.846 296.84H75.9641V130.254H260.846V296.84Z" stroke="#383D4D" stroke-width="13.3333" stroke-miterlimit="10"/>
<path d="M262.765 236.211H416.351V418.5H217.994V313.203" stroke="#383D4D" stroke-width="16" stroke-miterlimit="10"/>
<path d="M239.661 268.438H97.1492V149.855H239.661V268.438Z" stroke="#383D4D" stroke-width="11.7233" stroke-miterlimit="10"/>
<path d="M96.9915 238.44L153.958 188.565L239.407 266.155" stroke="#383D4D" stroke-width="14.2225" stroke-miterlimit="10" stroke-linecap="round"/>
<path d="M176.965 209.45L196.266 188.565L239.407 225.653" stroke="#383D4D" stroke-width="12.7489" stroke-miterlimit="10"/>
<path d="M294.542 327.944V291.026L325.838 309.485L357.186 327.944L325.864 346.403L294.542 364.862V327.944Z" fill="#EF3744"/>
<path d="M294.542 327.944V291.026L325.838 309.485L357.186 327.944L325.864 346.403L294.542 364.862V327.944Z" stroke="#383D4D" stroke-width="12.7801" stroke-miterlimit="10"/>
<path d="M294.542 266.102H277.212V251.397H294.542V266.102Z" fill="#383D4D"/>
<path d="M327.283 266.102H310.917V251.397H327.283V266.102Z" fill="#383D4D"/>
<path d="M359.06 266.102H342.695V251.397H359.06V266.102Z" fill="#383D4D"/>
<path d="M391.802 266.102H374.463V251.397H391.802V266.102Z" fill="#383D4D"/>
<path d="M261.801 405.276H244.471V390.571H261.801V405.276Z" fill="#383D4D"/>
<path d="M294.542 405.276H277.212V390.571H294.542V405.276Z" fill="#383D4D"/>
<path d="M327.283 405.276H310.917V390.571H327.283V405.276Z" fill="#383D4D"/>
<path d="M359.06 405.276H342.695V390.571H359.06V405.276Z" fill="#383D4D"/>
<path d="M391.802 405.276H374.463V390.571H391.802V405.276Z" fill="#383D4D"/>
<path d="M447.444 64.9791H403.717C396.883 64.9791 391.092 69.6607 389.155 76.1169H322.622C317.786 76.1169 313.869 80.1029 313.869 85.0164V90.2866H388.472H456.101H457.099V74.806C457.099 69.3753 452.78 64.9791 447.444 64.9791Z" fill="#FABE2D"/>
<path d="M447.444 64.9791H403.717C396.883 64.9791 391.092 69.6607 389.155 76.1169H322.622C317.786 76.1169 313.869 80.1029 313.869 85.0164V90.2866H388.472H456.101H457.099V74.806C457.099 69.3753 452.78 64.9791 447.444 64.9791Z" stroke="#383D4D" stroke-width="10.6667" stroke-miterlimit="10"/>
<path d="M315.858 104.456V202.655H461.078V104.456H315.858Z" fill="#FABE2D"/>
<path d="M302.936 103.056V188.315C302.936 194.807 308.105 200.077 314.483 200.077H448.532C454.91 200.077 460.079 194.807 460.079 188.315V103.056C460.079 96.5644 454.91 91.303 448.532 91.303H314.483C308.105 91.303 302.936 96.5644 302.936 103.056Z" stroke="#383D4D" stroke-width="13.3333" stroke-miterlimit="10"/>
<path d="M40.8135 132.225C40.8135 112.589 56.4524 96.6713 75.7448 96.6713C95.0373 96.6713 110.676 112.589 110.676 132.225C110.676 151.861 95.0373 167.779 75.7448 167.779C56.4524 167.779 40.8135 151.861 40.8135 132.225Z" fill="#59C13A"/>
<path d="M40.8135 132.225C40.8135 112.589 56.4524 96.6713 75.7448 96.6713C95.0373 96.6713 110.676 112.589 110.676 132.225C110.676 151.861 95.0373 167.779 75.7448 167.779C56.4524 167.779 40.8135 151.861 40.8135 132.225Z" stroke="#383D4D" stroke-width="11.2994" stroke-miterlimit="10"/>
<path d="M60.9124 134.552L71.1368 144.95L92.313 123.388" stroke="#383D4D" stroke-width="13.2417" stroke-miterlimit="10" stroke-linecap="round"/>
<path d="M379.886 402.217C379.886 382.581 395.534 366.663 414.818 366.663C434.11 366.663 449.749 382.581 449.749 402.217C449.749 421.853 434.11 437.77 414.818 437.77C395.534 437.77 379.886 421.853 379.886 402.217Z" fill="#59C13A"/>
<path d="M379.886 402.217C379.886 382.581 395.534 366.663 414.818 366.663C434.11 366.663 449.749 382.581 449.749 402.217C449.749 421.853 434.11 437.77 414.818 437.77C395.534 437.77 379.886 421.853 379.886 402.217Z" stroke="#383D4D" stroke-width="11.2994" stroke-miterlimit="10"/>
<path d="M399.993 404.544L410.209 414.942L431.394 393.38" stroke="#383D4D" stroke-width="13.2417" stroke-miterlimit="10" stroke-linecap="round"/>
<path d="M422.528 187.905C422.528 170.712 436.222 156.774 453.113 156.774C470.005 156.774 483.699 170.712 483.699 187.905C483.699 205.098 470.005 219.036 453.113 219.036C436.222 219.036 422.528 205.098 422.528 187.905Z" fill="#59C13A"/>
<path d="M422.528 187.905C422.528 170.712 436.222 156.774 453.113 156.774C470.005 156.774 483.699 170.712 483.699 187.905C483.699 205.098 470.005 219.036 453.113 219.036C436.222 219.036 422.528 205.098 422.528 187.905Z" stroke="#383D4D" stroke-width="9.894" stroke-miterlimit="10"/>
<path d="M440.129 189.938L449.075 199.043L467.622 180.165" stroke="#383D4D" stroke-width="13.2417" stroke-miterlimit="10" stroke-linecap="round"/>
<path d="M168.624 404H177.053L168.966 389.831V388.564H168.239L158.584 371.63L140.106 404H151.61C148.508 425.714 130.469 442.434 108.749 442.434C98.1745 442.434 87.9937 438.43 80.0822 431.154L73.7566 425.34L62.5859 438.511L68.9116 444.316C79.9158 454.428 94.0567 459.993 108.749 459.993C139.791 459.993 165.418 435.425 168.624 404Z" fill="#81BDC7"/>
<path d="M66.7299 385.96L67.5272 383.41C73.3359 364.773 89.9036 352.262 108.749 352.262C118.325 352.262 127.402 355.436 134.989 361.455L141.701 366.779L151.934 352.815L145.223 347.491C134.665 339.117 122.058 334.694 108.749 334.694C82.5704 334.694 59.5455 352.092 51.4676 377.979L48.9793 385.96H40.9365L59.4053 418.331L77.883 385.96H66.7299Z" fill="#EF3744"/>
</svg>
