<svg width="525" height="525" viewBox="0 0 525 525" fill="none" xmlns="http://www.w3.org/2000/svg">
<path d="M408.918 366.555H119.742C106.6 366.555 95.946 355.711 95.946 342.326V158.191C95.946 144.815 106.6 133.971 119.742 133.971H408.918C422.069 133.971 432.723 144.815 432.723 158.191V342.326C432.723 355.711 422.069 366.555 408.918 366.555Z" fill="#CBE2EE"/>
<path d="M299.927 450.432L293.882 422.734H233.034L228.242 450.173C227.418 454.908 221.25 458.484 213.908 458.484H190.91V475.365H337.566V458.484H314.208C307.024 458.484 300.935 455.051 299.927 450.432Z" fill="#CBE2EE"/>
<path d="M63.9496 123.529V385.692C63.9496 393.869 70.3979 400.494 78.3532 400.494H450.377C458.332 400.494 464.781 393.869 464.781 385.692V123.529C464.781 115.352 458.332 108.726 450.377 108.726H78.3532C70.3979 108.726 63.9496 115.352 63.9496 123.529Z" stroke="#383D4D" stroke-width="16" stroke-miterlimit="10"/>
<path d="M309.127 439.347L301.39 400.53H223.572L217.448 438.991C216.388 445.625 208.503 450.628 199.11 450.628H169.699V474.286H357.261V450.628H327.394C318.203 450.628 310.415 445.821 309.127 439.347Z" stroke="#383D4D" stroke-width="16" stroke-miterlimit="10"/>
<path d="M59.49 340.739H460.742" stroke="#383D4D" stroke-width="14.6157" stroke-miterlimit="10"/>
<path d="M395.049 336.922H135.714V73.2618C135.714 60.403 145.947 49.9874 158.581 49.9874H372.182C384.816 49.9874 395.049 60.403 395.049 73.2618V336.922Z" fill="#F8FCFD"/>
<path d="M395.049 336.922H135.714V73.2618C135.714 60.403 145.947 49.9874 158.581 49.9874H372.182C384.816 49.9874 395.049 60.403 395.049 73.2618V336.922Z" stroke="#383D4D" stroke-width="18.6667" stroke-miterlimit="10"/>
<path d="M220.585 155.694H183.314V117.76H220.585V155.694Z" stroke="#81BDC7" stroke-width="12.7685" stroke-miterlimit="10"/>
<path d="M220.173 221.255H182.902V183.32H220.173V221.255Z" stroke="#FABE2D" stroke-width="10.8794" stroke-miterlimit="10"/>
<path d="M219.77 286.807H182.499V248.872H219.77V286.807Z" stroke="#EF3744" stroke-width="10.2148" stroke-miterlimit="10"/>
<path d="M261.097 152.35V121.549H267.046L279.426 142.122V121.549H285.103V152.35H278.97L266.774 132.268V152.35H261.097Z" fill="#444C5C"/>
<path d="M291.35 152.35V121.549H313.788V126.757H297.456V133.588H312.649V138.778H297.456V147.16H314.366V152.35H291.35Z" fill="#444C5C"/>
<path d="M326.141 152.35V126.757H317.161V121.549H341.211V126.757H332.257V152.35H326.141Z" fill="#444C5C"/>
<path d="M266.853 206.746C266.853 210.028 267.598 212.507 269.087 214.201C270.577 215.887 272.46 216.734 274.747 216.734C277.034 216.734 278.917 215.895 280.381 214.219C281.852 212.543 282.58 210.028 282.58 206.675C282.58 203.358 281.87 200.879 280.442 199.247C279.014 197.615 277.113 196.803 274.747 196.803C272.382 196.803 270.48 197.633 269.026 199.282C267.58 200.932 266.853 203.42 266.853 206.746ZM260.939 206.951C260.939 204 261.377 201.53 262.245 199.523C262.884 198.052 263.769 196.732 264.891 195.564C266.003 194.387 267.23 193.522 268.562 192.951C270.331 192.193 272.373 191.81 274.695 191.81C278.883 191.81 282.229 193.129 284.744 195.778C287.258 198.417 288.52 202.1 288.52 206.809C288.52 211.481 287.267 215.137 284.779 217.777C282.282 220.408 278.944 221.727 274.765 221.727C270.542 221.727 267.177 220.417 264.689 217.795C262.192 215.164 260.939 211.553 260.939 206.951Z" fill="#444C5C"/>
<path d="M298.56 204.544H302.801C305.561 204.544 307.278 204.419 307.961 204.187C308.645 203.946 309.179 203.536 309.573 202.956C309.959 202.386 310.152 201.654 310.152 200.789C310.152 199.818 309.898 199.033 309.39 198.435C308.873 197.829 308.154 197.454 307.225 197.294C306.761 197.231 305.359 197.196 303.038 197.196H298.56V204.544ZM292.813 221.237V192.3H304.895C307.935 192.3 310.143 192.559 311.518 193.085C312.894 193.602 313.998 194.529 314.83 195.858C315.654 197.187 316.066 198.703 316.066 200.415C316.066 202.591 315.444 204.374 314.191 205.792C312.929 207.21 311.054 208.102 308.566 208.467C309.801 209.208 310.826 210.01 311.632 210.893C312.447 211.776 313.534 213.345 314.9 215.592L318.379 221.237H311.51L307.357 214.941C305.885 212.694 304.877 211.276 304.334 210.688C303.791 210.099 303.222 209.698 302.608 209.484C302.004 209.27 301.04 209.154 299.717 209.154H298.56V221.237H292.813Z" fill="#444C5C"/>
<path d="M334.499 210.599V205.721H346.87V217.251C345.67 218.437 343.927 219.48 341.649 220.381C339.371 221.282 337.058 221.727 334.718 221.727C331.74 221.727 329.155 221.094 326.938 219.828C324.73 218.553 323.066 216.743 321.953 214.379C320.849 212.016 320.288 209.448 320.288 206.675C320.288 203.661 320.911 200.977 322.155 198.64C323.39 196.295 325.212 194.503 327.604 193.254C329.427 192.291 331.687 191.81 334.403 191.81C337.934 191.81 340.694 192.559 342.674 194.066C344.662 195.573 345.933 197.659 346.502 200.317L340.808 201.405C340.405 199.978 339.651 198.863 338.547 198.034C337.443 197.214 336.059 196.803 334.403 196.803C331.897 196.803 329.9 197.615 328.428 199.229C326.947 200.852 326.202 203.251 326.202 206.434C326.202 209.867 326.956 212.444 328.454 214.157C329.952 215.878 331.915 216.734 334.35 216.734C335.551 216.734 336.751 216.493 337.96 216.02C339.169 215.539 340.212 214.95 341.079 214.272V210.599H334.499Z" fill="#444C5C"/>
<path d="M250.461 151.762H242.356V143.513H250.461V151.762Z" fill="#444C5C"/>
<path d="M250.461 218.562H242.356V210.313H250.461V218.562Z" fill="#444C5C"/>
<path d="M279.548 272.904L285.226 274.741C284.358 277.961 282.913 280.359 280.889 281.92C278.856 283.48 276.289 284.265 273.179 284.265C269.324 284.265 266.161 282.928 263.681 280.252C261.202 277.568 259.958 273.912 259.958 269.266C259.958 264.353 261.211 260.536 263.699 257.816C266.196 255.096 269.473 253.741 273.538 253.741C277.086 253.741 279.969 254.802 282.185 256.942C283.5 258.2 284.49 260.01 285.147 262.373L279.356 263.782C279.005 262.257 278.295 261.044 277.209 260.161C276.114 259.279 274.791 258.833 273.24 258.833C271.085 258.833 269.341 259.617 268.001 261.187C266.669 262.756 265.994 265.307 265.994 268.82C265.994 272.548 266.66 275.214 267.975 276.792C269.297 278.38 271.006 279.173 273.118 279.173C274.677 279.173 276.017 278.665 277.139 277.657C278.26 276.65 279.058 275.071 279.548 272.904Z" fill="#444C5C"/>
<path d="M294.898 268.981C294.898 272.325 295.661 274.857 297.176 276.587C298.692 278.308 300.619 279.173 302.95 279.173C305.289 279.173 307.199 278.317 308.697 276.605C310.196 274.893 310.949 272.325 310.949 268.9C310.949 265.521 310.213 262.997 308.759 261.33C307.304 259.662 305.368 258.833 302.95 258.833C300.541 258.833 298.595 259.671 297.115 261.356C295.634 263.042 294.898 265.583 294.898 268.981ZM288.862 269.186C288.862 266.172 289.308 263.648 290.193 261.606C290.85 260.108 291.753 258.761 292.892 257.566C294.031 256.372 295.284 255.48 296.642 254.9C298.447 254.124 300.532 253.741 302.889 253.741C307.164 253.741 310.59 255.087 313.148 257.78C315.715 260.482 317.003 264.237 317.003 269.043C317.003 273.805 315.724 277.532 313.183 280.226C310.634 282.919 307.234 284.265 302.967 284.265C298.657 284.265 295.231 282.928 292.682 280.252C290.141 277.568 288.862 273.885 288.862 269.186Z" fill="#444C5C"/>
<path d="M321.287 283.766V254.24H330.057L335.314 274.376L340.518 254.24H349.306V283.766H343.865V260.527L338.109 283.766H332.467L326.728 260.527V283.766H321.287Z" fill="#444C5C"/>
<path d="M250.461 282.053H242.356V273.805H250.461V282.053Z" fill="#444C5C"/>
<path d="M368.984 93.9056H164.407C156.303 93.9056 149.732 87.2176 149.732 78.969C149.732 70.7204 156.303 64.0324 164.407 64.0324H368.984C377.088 64.0324 383.659 70.7204 383.659 78.969C383.659 87.2176 377.088 93.9056 368.984 93.9056Z" fill="#81BDC7"/>
</svg>
