<svg width="525" height="525" viewBox="0 0 525 525" fill="none" xmlns="http://www.w3.org/2000/svg">
<path d="M92.0094 346.663V195.023" stroke="#383D4D" stroke-width="14.2008" stroke-miterlimit="10" stroke-linecap="round"/>
<path d="M238.339 451.282L122.722 386.114" stroke="#383D4D" stroke-width="14.2008" stroke-miterlimit="10" stroke-linecap="round"/>
<path d="M414.688 380.344L291.62 450.694" stroke="#383D4D" stroke-width="14.2008" stroke-miterlimit="10" stroke-linecap="round"/>
<path d="M434.784 184.179V332.806" stroke="#383D4D" stroke-width="14.2008" stroke-miterlimit="10" stroke-linecap="round"/>
<path d="M286.26 73.274L404.529 138.228" stroke="#383D4D" stroke-width="14.2008" stroke-miterlimit="10" stroke-linecap="round"/>
<path d="M110.067 150.231L229.802 82.1111" stroke="#383D4D" stroke-width="14.2008" stroke-miterlimit="10" stroke-linecap="round"/>
<path d="M447.19 176.528C438.779 185.089 425.156 185.089 416.754 176.528C408.35 167.977 408.35 154.11 416.754 145.558C425.156 137.007 438.779 137.007 447.19 145.558C455.592 154.11 455.592 167.977 447.19 176.528Z" fill="#FABE2D"/>
<path d="M447.19 176.528C438.779 185.089 425.156 185.089 416.754 176.528C408.35 167.977 408.35 154.11 416.754 145.558C425.156 137.007 438.779 137.007 447.19 145.558C455.592 154.11 455.592 167.977 447.19 176.528Z" stroke="#383D4D" stroke-width="11.3606" stroke-miterlimit="10"/>
<path d="M110.757 382.886C102.353 391.447 88.7283 391.447 80.3244 382.886C71.9205 374.334 71.9205 360.468 80.3244 351.916C88.7283 343.364 102.353 343.364 110.757 351.916C119.161 360.468 119.161 374.334 110.757 382.886Z" fill="#FABE2D"/>
<path d="M110.757 382.886C102.353 391.447 88.7283 391.447 80.3244 382.886C71.9205 374.334 71.9205 360.468 80.3244 351.916C88.7283 343.364 102.353 343.364 110.757 351.916C119.161 360.468 119.161 374.334 110.757 382.886Z" stroke="#383D4D" stroke-width="11.3606" stroke-miterlimit="10"/>
<path d="M276.735 469.037C268.331 477.589 254.706 477.589 246.303 469.037C237.899 460.476 237.899 446.61 246.303 438.058C254.706 429.506 268.331 429.506 276.735 438.058C285.139 446.61 285.139 460.476 276.735 469.037Z" fill="#EF3744"/>
<path d="M276.735 469.037C268.331 477.589 254.706 477.589 246.303 469.037C237.899 460.476 237.899 446.61 246.303 438.058C254.706 429.506 268.331 429.506 276.735 438.058C285.139 446.61 285.139 460.476 276.735 469.037Z" stroke="#383D4D" stroke-width="11.3606" stroke-miterlimit="10"/>
<path d="M277.868 85.3839C269.464 93.9446 255.839 93.9446 247.435 85.3839C239.032 76.8321 239.032 62.9656 247.435 54.4138C255.839 45.8621 269.464 45.8621 277.868 54.4138C286.272 62.9656 286.272 76.8321 277.868 85.3839Z" fill="#EF3744"/>
<path d="M277.868 85.3839C269.464 93.9446 255.839 93.9446 247.435 85.3839C239.032 76.8321 239.032 62.9656 247.435 54.4138C255.839 45.8621 269.464 45.8621 277.868 54.4138C286.272 62.9656 286.272 76.8321 277.868 85.3839Z" stroke="#383D4D" stroke-width="11.3606" stroke-miterlimit="10"/>
<path d="M331.855 276.109C331.855 233.19 297.442 198.394 254.991 198.394C212.54 198.394 178.126 233.19 178.126 276.109C178.126 319.028 212.54 353.824 254.991 353.824C297.442 353.824 331.855 319.028 331.855 276.109Z" fill="#CBE2EE"/>
<path d="M180.386 313.651L184.589 310.833L182.162 299.696L193.364 288.665L209.895 299.134L214.183 284.491H224.31L227.545 309.068L240.515 317.869L276.179 313.464L280.502 342.071L295.234 351.532C295.234 351.532 200.233 369.938 180.386 313.651Z" fill="#81BDC7"/>
<path d="M180.386 313.651L184.589 310.833L182.162 299.696L193.364 288.665L209.895 299.134L214.183 284.491H224.31L227.545 309.068L240.515 317.869L276.179 313.464L280.502 342.071L295.234 351.532C295.234 351.532 200.233 369.938 180.386 313.651Z" stroke="#383D4D" stroke-width="7.67831" stroke-miterlimit="10"/>
<path d="M356.986 262.679C356.986 209.3 314.47 166.024 262.024 166.024C209.578 166.024 167.061 209.3 167.061 262.679C167.061 316.059 209.578 359.335 262.024 359.335C314.47 359.335 356.986 316.059 356.986 262.679Z" stroke="#383D4D" stroke-width="13.2964" stroke-miterlimit="10"/>
<path d="M277.215 167.763L282.512 180.773L272.112 184.893L257.908 180.238L229.544 198.26L233.08 217.326L220.421 229.685L238.556 243.347L265.492 230.184L298.895 259.79L302.932 246.691L322.169 239.985L326.725 252.353L340.393 239.601L319.188 221.428H349.527C349.527 221.428 321.263 170.054 277.215 167.763Z" fill="#81BDC7"/>
<path d="M277.215 167.763L282.512 180.773L272.112 184.893L257.908 180.238L229.544 198.26L233.08 217.326L220.421 229.685L238.556 243.347L265.492 230.184L298.895 259.79L302.932 246.691L322.169 239.985L326.725 252.353L340.393 239.601L319.188 221.428H349.527C349.527 221.428 321.263 170.054 277.215 167.763Z" stroke="#383D4D" stroke-width="7.65503" stroke-miterlimit="10"/>
<path d="M262.948 153.887V87.9075" stroke="#383D4D" stroke-width="13.958" stroke-miterlimit="10" stroke-linecap="square" stroke-dasharray="18.61 35.5"/>
<path d="M115.994 357.534L121.211 354.288" stroke="#383D4D" stroke-width="13.958" stroke-miterlimit="10" stroke-linecap="square"/>
<path d="M139.016 343.212L157.252 331.869" stroke="#383D4D" stroke-width="13.958" stroke-miterlimit="10" stroke-linecap="square" stroke-dasharray="16.65 31.76"/>
<path d="M166.155 326.341L171.372 323.095" stroke="#383D4D" stroke-width="13.958" stroke-miterlimit="10" stroke-linecap="square"/>
<path d="M351.009 315.782L414.209 359.701" stroke="#383D4D" stroke-width="13.958" stroke-miterlimit="10" stroke-linecap="square" stroke-dasharray="18.61 35.5"/>
<path d="M411.409 171.686L406.192 174.932" stroke="#383D4D" stroke-width="13.958" stroke-miterlimit="10" stroke-linecap="square"/>
<path d="M388.386 186.008L370.15 197.35" stroke="#383D4D" stroke-width="13.958" stroke-miterlimit="10" stroke-linecap="square" stroke-dasharray="16.65 31.76"/>
<path d="M361.248 202.888L356.031 206.125" stroke="#383D4D" stroke-width="13.958" stroke-miterlimit="10" stroke-linecap="square"/>
<path d="M176.844 209.46L107.595 169.528" stroke="#383D4D" stroke-width="13.958" stroke-miterlimit="10" stroke-linecap="square" stroke-dasharray="18.61 35.5"/>
<path d="M262.023 430.745V369.965" stroke="#383D4D" stroke-width="13.958" stroke-miterlimit="10" stroke-linecap="square" stroke-dasharray="18.61 35.5"/>
<path d="M106.735 175.61C98.3315 184.162 84.7068 184.162 76.3029 175.61C67.899 167.049 67.899 153.183 76.3029 144.631C84.7068 136.079 98.3315 136.079 106.735 144.631C115.138 153.183 115.138 167.049 106.735 175.61Z" fill="#81BDC7"/>
<path d="M106.735 175.61C98.3315 184.162 84.7068 184.162 76.3029 175.61C67.899 167.049 67.899 153.183 76.3029 144.631C84.7068 136.079 98.3315 136.079 106.735 144.631C115.138 153.183 115.138 167.049 106.735 175.61Z" stroke="#383D4D" stroke-width="11.3606" stroke-miterlimit="10"/>
<path d="M445.447 383.1C437.036 391.66 423.414 391.66 415.011 383.1C406.607 374.548 406.607 360.681 415.011 352.13C423.414 343.578 437.036 343.578 445.447 352.13C453.849 360.681 453.849 374.548 445.447 383.1Z" fill="#81BDC7"/>
<path d="M445.447 383.1C437.036 391.66 423.414 391.66 415.011 383.1C406.607 374.548 406.607 360.681 415.011 352.13C423.414 343.578 437.036 343.578 445.447 352.13C453.849 360.681 453.849 374.548 445.447 383.1Z" stroke="#383D4D" stroke-width="11.3606" stroke-miterlimit="10"/>
</svg>
