<svg width="525" height="525" viewBox="0 0 525 525" fill="none" xmlns="http://www.w3.org/2000/svg">
<path d="M261.016 420.18C261.016 420.18 383.386 372.044 400.129 286.125C409.451 238.292 408.706 172.642 412.57 124.069L264.46 68.7191L111.592 116.097C114.264 153.185 121.983 268.049 123.166 284.404C137.017 366.899 261.016 420.18 261.016 420.18Z" fill="#F8FCFD"/>
<path d="M381.853 129.741C378.567 171.492 375.317 213.225 372.032 254.986C372.032 297.022 343.11 335.911 296.053 357.09L254.446 379.99L254.358 379.945V89.6571L255.698 89.2201L381.853 129.741Z" fill="#81BDC7"/>
<path d="M254.919 379.99L217.175 357.206C174.376 336.098 148.04 297.334 148.04 255.431L139.129 130.588L254.919 90.638" fill="#CBE2EE"/>
<path d="M321.041 83.6291L266.37 63.9305L112.276 112.869L123.788 265.767C139.681 375.424 260.71 416.087 260.71 416.087C260.71 416.087 376.588 375.424 400.392 264.322L411.721 112.807L362.999 96.256" stroke="#383D4D" stroke-width="16.0343" stroke-miterlimit="10"/>
<path d="M299.567 204.95H221.205C209.351 204.95 199.258 212.69 199.258 222.348V290.138C199.258 299.804 209.351 307.429 221.205 307.429H299.567C311.421 307.429 319.849 299.804 319.849 290.138V222.348C319.849 212.69 311.421 204.95 299.567 204.95Z" fill="#F8FCFD"/>
<path d="M289.149 220.796H232.165C223.544 220.796 216.194 227.573 216.194 236.045V295.453C216.194 303.915 223.544 310.603 232.165 310.603H289.149C297.771 310.603 303.895 303.915 303.895 295.453V236.045C303.895 227.573 297.771 220.796 289.149 220.796Z" fill="#FBC13B"/>
<path d="M304.035 200.982V179.464C304.035 157.599 292.82 139.728 279.302 139.728H238.894C225.376 139.728 212.838 157.599 212.838 179.464V200.982H228.845V183.504C228.845 167.158 235.539 154.487 244.949 154.487H273.073C282.482 154.487 288.72 167.158 288.72 183.504V200.982H304.035Z" fill="#81BDC7"/>
<path d="M304.035 200.982V179.464C304.035 157.599 292.82 139.728 279.302 139.728H238.894C225.376 139.728 212.838 157.599 212.838 179.464V200.982H228.845V183.504C228.845 167.158 235.539 154.487 244.949 154.487H273.073C282.482 154.487 288.72 167.158 288.72 183.504V200.982H304.035Z" stroke="#383D4D" stroke-width="12.9605" stroke-miterlimit="10"/>
<path d="M301.52 202.721H219.199C206.74 202.721 196.13 210.853 196.13 221.019V292.296C196.13 302.453 206.74 310.479 219.199 310.479H301.52C313.979 310.479 322.837 302.453 322.837 292.296V221.019C322.837 210.853 313.979 202.721 301.52 202.721Z" stroke="#383D4D" stroke-width="15.5527" stroke-miterlimit="10"/>
<path d="M265.748 256.6L268.998 289.808H247.874L251.125 255.975C246.946 253.461 244.606 249.287 244.606 244.552C244.606 236.865 251.09 230.632 258.923 230.632C266.755 230.632 273.318 236.865 273.318 244.552C273.318 249.706 269.226 254.192 265.748 256.6Z" fill="#383D4D"/>
<path d="M151.483 407.25C151.483 396.415 160.112 387.632 170.757 387.632C181.402 387.632 190.032 396.415 190.032 407.25C190.032 418.085 181.402 426.868 170.757 426.868C160.112 426.868 151.483 418.085 151.483 407.25ZM119.574 409.301C120.424 437.569 143.194 460.112 171.187 460.112C195.079 460.112 215.177 444.953 221.074 421.331H279.188V427.1V446.647H294.949V427.234H313.182V446.647H329.767V427.1V421.331H343.557C349.077 421.331 353.554 415.347 353.554 408.249C353.554 401.151 349.077 395.167 343.557 395.167H251.914H221.442C216.08 371.536 195.622 354.727 171.187 354.727C142.66 354.727 119.539 378.429 119.539 407.455C119.539 408.008 119.556 408.757 119.574 409.301Z" fill="#FABE2D"/>
<path d="M151.483 407.25C151.483 396.415 160.112 387.632 170.757 387.632C181.402 387.632 190.032 396.415 190.032 407.25C190.032 418.085 181.402 426.868 170.757 426.868C160.112 426.868 151.483 418.085 151.483 407.25ZM119.574 409.301C120.424 437.569 143.194 460.112 171.187 460.112C195.079 460.112 215.177 444.953 221.074 421.331H279.188V427.1V446.647H294.949V427.234H313.182V446.647H329.767V427.1V421.331H343.557C349.077 421.331 353.554 415.347 353.554 408.249C353.554 401.151 349.077 395.167 343.557 395.167H251.914H221.442C216.08 371.536 195.622 354.727 171.187 354.727C142.66 354.727 119.539 378.429 119.539 407.455C119.539 408.008 119.556 408.757 119.574 409.301Z" stroke="#383D4D" stroke-width="16" stroke-miterlimit="10"/>
</svg>
