<svg width="525" height="525" viewBox="0 0 525 525" fill="none" xmlns="http://www.w3.org/2000/svg">
<path d="M228.353 226.639C208.701 207.038 208.368 174.953 227.608 154.97C246.848 134.977 278.38 134.656 298.023 154.247C317.675 173.848 318.008 205.932 298.768 225.925C279.528 245.909 248.004 246.23 228.353 226.639ZM313.233 249.779C318.393 245.231 322.993 239.952 326.857 234.04L350.337 238.267L360.404 207.422L339.526 196.712C340.104 189.364 339.639 182.069 338.229 175.025L357.144 161.559L342.829 132.489L321.346 139.703C316.615 134.032 311.051 129.011 304.769 124.847L308.668 102.384L278.354 92.1198L268.357 112.327C260.779 111.747 253.271 112.327 246.042 113.958L233.295 95.4103L204.741 109.963L211.777 131.651C206.292 136.555 201.464 142.289 197.478 148.736L175.18 144.723L165.114 175.569L185.756 186.154C185.353 193.502 185.975 200.778 187.543 207.787L168.373 221.431L182.689 250.502L205.354 242.895C209.901 248.067 215.158 252.66 221.037 256.503L216.849 280.607L247.164 290.871L258.072 268.836C264.94 269.264 271.739 268.747 278.328 267.355L292.223 287.58L320.777 273.027L313.233 249.779Z" fill="#FABE2D"/>
<path d="M228.353 226.639C208.701 207.038 208.368 174.953 227.608 154.97C246.848 134.977 278.38 134.656 298.023 154.247C317.675 173.848 318.008 205.932 298.768 225.925C279.528 245.909 248.004 246.23 228.353 226.639ZM313.233 249.779C318.393 245.231 322.993 239.952 326.857 234.04L350.337 238.267L360.404 207.422L339.526 196.712C340.104 189.364 339.639 182.069 338.229 175.025L357.144 161.559L342.829 132.489L321.346 139.703C316.615 134.032 311.051 129.011 304.769 124.847L308.668 102.384L278.354 92.1198L268.357 112.327C260.779 111.747 253.271 112.327 246.042 113.958L233.295 95.4103L204.741 109.963L211.777 131.651C206.292 136.555 201.464 142.289 197.478 148.736L175.18 144.723L165.114 175.569L185.756 186.154C185.353 193.502 185.975 200.778 187.543 207.787L168.373 221.431L182.689 250.502L205.354 242.895C209.901 248.067 215.158 252.66 221.037 256.503L216.849 280.607L247.164 290.871L258.072 268.836C264.94 269.264 271.739 268.747 278.328 267.355L292.223 287.58L320.777 273.027L313.233 249.779Z" stroke="#383D4D" stroke-width="15.4347" stroke-miterlimit="10" stroke-linecap="round" stroke-linejoin="round"/>
<path d="M417.633 303.346C410.852 296.328 399.856 296.328 393.075 303.346L329.494 369.13C330.239 367.15 330.659 364.992 330.659 362.727C330.659 353.007 323.037 345.124 313.645 345.124H218.786C214.8 345.124 210.944 346.667 207.992 349.44L160.251 394.473L209.236 445.15L228.476 424.712C230.351 422.768 232.892 421.68 235.546 421.68H321.223C325.446 421.68 329.503 419.941 332.49 416.846L417.633 328.752C424.415 321.734 424.415 310.364 417.633 303.346Z" fill="#CBE2EE"/>
<path d="M149.685 390.478L209.919 452.801C210.962 453.88 210.962 455.628 209.919 456.707L190.496 476.807C189.453 477.886 187.762 477.886 186.72 476.807L125.618 413.583C124.54 412.477 124.584 410.658 125.706 409.588L145.988 390.389C147.048 389.39 148.669 389.426 149.685 390.478Z" fill="#81BDC7"/>
<path d="M317 353.587L385.321 282.898C392.61 275.363 404.43 275.363 411.71 282.898C419 290.443 419 302.668 411.71 310.203L320.224 404.871C317.009 408.188 312.655 410.06 308.117 410.06H216.052C213.205 410.06 210.471 411.229 208.456 413.315L187.78 435.279L135.141 380.82L186.448 332.435C189.619 329.447 193.754 327.797 198.039 327.797H299.969C310.07 327.797 318.253 336.269 318.253 346.711C318.253 357.162 310.07 365.625 299.969 365.625H242.906" stroke="#383D4D" stroke-width="14.9508" stroke-miterlimit="10" stroke-linecap="round"/>
<path d="M129.324 374.801L194.052 441.78C195.174 442.939 195.174 444.82 194.052 445.98L173.183 467.569C172.062 468.737 170.248 468.737 169.127 467.569L103.469 399.645C102.313 398.441 102.356 396.488 103.557 395.347L125.355 374.712C126.494 373.642 128.238 373.677 129.324 374.801Z" stroke="#383D4D" stroke-width="14.9508" stroke-miterlimit="10" stroke-linecap="round" stroke-linejoin="round"/>
<path d="M309.483 90.6216C309.483 107.716 300.214 122.662 286.424 130.732V242.627C286.424 249.11 283.778 254.996 279.511 259.249C275.28 263.467 269.427 266.098 262.978 266.134C249.924 266.205 239.253 255.21 239.253 242.208V130.732C225.463 122.662 216.193 107.716 216.193 90.6216C216.193 70.1562 229.466 52.7762 247.9 46.5697V76.6035C247.9 83.3361 253.376 88.7935 260.131 88.7935H265.02C271.774 88.7935 277.25 83.3361 277.25 76.6035V46.4003C295.956 52.4463 309.483 69.96 309.483 90.6216Z" fill="#F8FCFD"/>
<path d="M302.72 98.5937C302.72 114.021 296.368 127.513 286.923 134.798V235.788C286.923 241.647 285.109 246.952 282.192 250.796C279.292 254.603 275.279 256.976 270.864 257.011C261.927 257.074 254.611 247.149 254.611 235.413V134.798C245.167 127.513 238.815 114.021 238.815 98.5937C238.815 80.1169 239.498 64.4312 252.132 58.8311V85.9399C252.132 92.0127 264.284 96.944 268.91 96.944H272.265C276.891 96.944 280.641 92.0127 280.641 85.9399V58.6795C293.45 64.137 302.72 79.9475 302.72 98.5937Z" fill="#CBE2EE"/>
<path d="M309.483 90.6216C309.483 107.716 300.214 122.662 286.424 130.732V242.627C286.424 249.11 283.778 254.996 279.511 259.249C275.28 263.467 269.427 266.098 262.978 266.134C249.924 266.205 239.253 255.21 239.253 242.208V130.732C225.463 122.662 216.193 107.716 216.193 90.6216C216.193 70.1562 229.466 52.7762 247.9 46.5697V76.6035C247.9 83.3361 253.376 88.7935 260.131 88.7935H265.02C271.774 88.7935 277.25 83.3361 277.25 76.6035V46.4003C295.956 52.4463 309.483 69.96 309.483 90.6216Z" stroke="#383D4D" stroke-width="14.972" stroke-miterlimit="10"/>
<path d="M255.286 247.666C251.466 243.858 251.466 237.687 255.286 233.871C259.106 230.063 265.3 230.063 269.129 233.871C272.949 237.687 272.949 243.858 269.129 247.666C265.3 251.482 259.106 251.482 255.286 247.666Z" fill="#383D4D"/>
</svg>
