<svg width="525" height="525" viewBox="0 0 525 525" fill="none" xmlns="http://www.w3.org/2000/svg">
<path d="M455.942 195.03L411.934 220.802L367.935 195.03V143.47L411.934 117.699L455.942 143.47V195.03Z" fill="#CBE2EE"/>
<path d="M456.135 298.811L412.862 324.154L369.59 298.811V248.115L412.862 222.763L456.135 248.115V298.811Z" fill="#CBE2EE"/>
<path d="M453.349 398.008L410.182 422.254L368.864 394.227L369.792 349.515L410.182 325.269L453.349 349.515V398.008Z" fill="#CBE2EE"/>
<path d="M300.99 408.495C300.99 428.702 288.952 446.296 273.444 446.296H109.476C93.9683 446.296 80.8523 428.702 80.8523 408.495V141.588C80.8523 121.391 93.9683 105.946 109.476 105.946H273.444C288.952 105.946 300.99 121.391 300.99 141.588V408.495Z" fill="#CBE2EE"/>
<path d="M282.573 397.366C282.573 418.661 269.843 437.209 253.442 437.209H80.0021C63.6009 437.209 49.7231 418.661 49.7231 397.366V115.987C49.7231 94.6918 63.6009 78.4175 80.0021 78.4175H253.442C269.843 78.4175 282.573 94.6918 282.573 115.987V397.366Z" stroke="#383D4D" stroke-width="18.1653" stroke-miterlimit="10"/>
<path d="M185.594 383.767C185.594 394.593 176.035 403.376 164.234 403.376C152.441 403.376 142.882 394.593 142.882 383.767C142.882 372.941 152.441 364.158 164.234 364.158C176.035 364.158 185.594 372.941 185.594 383.767Z" fill="#EF3744"/>
<path d="M185.594 383.767C185.594 394.593 176.035 403.376 164.234 403.376C152.441 403.376 142.882 394.593 142.882 383.767C142.882 372.941 152.441 364.158 164.234 364.158C176.035 364.158 185.594 372.941 185.594 383.767Z" stroke="#383D4D" stroke-width="16.1469" stroke-miterlimit="10"/>
<path d="M96.0793 78.4175V437.209" stroke="#383D4D" stroke-width="18.1653" stroke-miterlimit="10"/>
<path d="M229.751 78.4175V437.209" stroke="#383D4D" stroke-width="18.1653" stroke-miterlimit="10"/>
<path d="M229.751 330.129H98.2346V301.219H229.751V330.129Z" fill="#81BDC7"/>
<path d="M229.751 330.129H98.2346V301.219H229.751V330.129Z" stroke="#383D4D" stroke-width="13.7048" stroke-miterlimit="10"/>
<path d="M229.751 270.249H98.2346V241.347H229.751V270.249Z" fill="#81BDC7"/>
<path d="M229.751 270.249H98.2346V241.347H229.751V270.249Z" stroke="#383D4D" stroke-width="13.7048" stroke-miterlimit="10"/>
<path d="M229.751 206.248H98.2346V177.338H229.751V206.248Z" fill="#81BDC7"/>
<path d="M229.751 206.248H98.2346V177.338H229.751V206.248Z" stroke="#383D4D" stroke-width="13.7048" stroke-miterlimit="10"/>
<path d="M229.751 147.403H98.2346V118.492H229.751V147.403Z" fill="#81BDC7"/>
<path d="M229.751 147.403H98.2346V118.492H229.751V147.403Z" stroke="#383D4D" stroke-width="13.7048" stroke-miterlimit="10"/>
<path d="M348.335 172.781H287.961" stroke="#383D4D" stroke-width="14.1287" stroke-miterlimit="10"/>
<path d="M342.947 349.765H282.573" stroke="#383D4D" stroke-width="14.1287" stroke-miterlimit="10"/>
<path d="M348.335 262.499H287.961" stroke="#383D4D" stroke-width="14.1287" stroke-miterlimit="10"/>
<path d="M474.464 197.376L411.935 233.999L349.414 197.376V124.119L411.935 87.4865L474.464 124.119V197.376Z" stroke="#383D4D" stroke-width="16.4055" stroke-miterlimit="10"/>
<path d="M411.934 234.222V158.514" stroke="#383D4D" stroke-width="12.1102" stroke-miterlimit="10"/>
<path d="M412.469 158.924L475.34 124.119" stroke="#383D4D" stroke-width="12.1102" stroke-miterlimit="10"/>
<path d="M412.468 158.924L350.202 124.119" stroke="#383D4D" stroke-width="12.1102" stroke-miterlimit="10"/>
<path d="M451.036 211.224L474.464 225.082V298.338L411.935 334.962L349.414 298.338V225.082L371.799 212.081" stroke="#383D4D" stroke-width="16.4055" stroke-miterlimit="10"/>
<path d="M411.934 335.167V259.458" stroke="#383D4D" stroke-width="12.1102" stroke-miterlimit="10"/>
<path d="M412.469 259.886L475.34 225.082" stroke="#383D4D" stroke-width="12.1102" stroke-miterlimit="10"/>
<path d="M412.468 259.886L350.202 225.082" stroke="#383D4D" stroke-width="12.1102" stroke-miterlimit="10"/>
<path d="M450.151 311.17L473.378 325.028V398.284L410.857 434.908L348.336 398.284V325.028L370.817 312.026" stroke="#383D4D" stroke-width="16.4055" stroke-miterlimit="10"/>
<path d="M410.856 435.015V359.306" stroke="#383D4D" stroke-width="12.1102" stroke-miterlimit="10"/>
<path d="M411.777 359.833L474.639 325.028" stroke="#383D4D" stroke-width="12.1102" stroke-miterlimit="10"/>
<path d="M411.777 359.833L349.501 325.028" stroke="#383D4D" stroke-width="12.1102" stroke-miterlimit="10"/>
<path d="M409.35 205.58C407.799 205.58 406.318 204.786 405.276 203.743L385.282 183.536C383.276 181.52 383.469 178.373 385.721 176.58C387.972 174.779 391.415 174.931 393.422 176.946L409.078 192.676L441.626 155.428C443.484 153.297 446.91 152.922 449.284 154.59C451.65 156.257 452.07 159.325 450.213 161.456L413.643 203.502C412.644 204.643 411.137 205.58 409.525 205.58C409.464 205.58 409.411 205.58 409.35 205.58Z" fill="#FABE2D"/>
<path d="M409.35 205.58C407.799 205.58 406.318 204.786 405.276 203.743L385.282 183.536C383.276 181.52 383.469 178.373 385.721 176.58C387.972 174.779 391.415 174.931 393.422 176.946L409.078 192.676L441.626 155.428C443.484 153.297 446.91 152.922 449.284 154.59C451.65 156.257 452.07 159.325 450.213 161.456L413.643 203.502C412.644 204.643 411.137 205.58 409.525 205.58C409.464 205.58 409.411 205.58 409.35 205.58Z" stroke="#383D4D" stroke-width="7.06464" stroke-miterlimit="10"/>
<path d="M409.35 309.993C407.799 309.993 406.318 309.2 405.276 308.156L385.282 287.95C383.276 285.934 383.469 282.795 385.721 280.994C387.972 279.202 391.415 279.353 393.422 281.369L409.078 297.099L441.626 259.851C443.484 257.72 446.91 257.345 449.284 259.013C451.65 260.68 452.07 263.748 450.213 265.87L413.643 307.925C412.644 309.066 411.137 309.993 409.525 309.993C409.464 309.993 409.411 309.993 409.35 309.993Z" fill="#FABE2D"/>
<path d="M409.35 309.993C407.799 309.993 406.318 309.2 405.276 308.156L385.282 287.95C383.276 285.934 383.469 282.795 385.721 280.994C387.972 279.202 391.415 279.353 393.422 281.369L409.078 297.099L441.626 259.851C443.484 257.72 446.91 257.345 449.284 259.013C451.65 260.68 452.07 263.748 450.213 265.87L413.643 307.925C412.644 309.066 411.137 309.993 409.525 309.993C409.464 309.993 409.411 309.993 409.35 309.993Z" stroke="#383D4D" stroke-width="7.06464" stroke-miterlimit="10"/>
<path d="M409.35 409.69C407.799 409.69 406.318 408.896 405.276 407.853L385.282 387.646C383.276 385.631 383.469 382.492 385.721 380.69C387.972 378.898 391.415 379.05 393.422 381.056L409.078 396.795L441.626 359.547C443.484 357.416 446.91 357.041 449.284 358.7C451.65 360.377 452.07 363.444 450.213 365.566L413.643 407.612C412.644 408.762 411.137 409.69 409.525 409.69C409.464 409.69 409.411 409.69 409.35 409.69Z" fill="#FABE2D"/>
<path d="M409.35 409.69C407.799 409.69 406.318 408.896 405.276 407.853L385.282 387.646C383.276 385.631 383.469 382.492 385.721 380.69C387.972 378.898 391.415 379.05 393.422 381.056L409.078 396.795L441.626 359.547C443.484 357.416 446.91 357.041 449.284 358.7C451.65 360.377 452.07 363.444 450.213 365.566L413.643 407.612C412.644 408.762 411.137 409.69 409.525 409.69C409.464 409.69 409.411 409.69 409.35 409.69Z" stroke="#383D4D" stroke-width="7.06464" stroke-miterlimit="10"/>
</svg>
