<svg width="525" height="525" viewBox="0 0 525 525" fill="none" xmlns="http://www.w3.org/2000/svg">
<path d="M295.694 301H78.3061C69.2997 301 62 293.466 62 284.17V164.83C62 155.534 69.2997 148 78.3061 148H295.694C304.7 148 312 155.534 312 164.83V284.17C312 293.466 304.7 301 295.694 301Z" fill="#CBE2EE"/>
<path d="M315.295 434H79.7049C72.6912 434 67 428.134 67 420.905V395.095C67 387.858 72.6912 382 79.7049 382H315.295C322.317 382 328 387.858 328 395.095V420.905C328 428.134 322.317 434 315.295 434Z" fill="#CBE2EE"/>
<path d="M316 425H55V373H316V425Z" stroke="#383D4D" stroke-width="13.3333" stroke-miterlimit="10"/>
<path d="M227.978 118H343V332H28V118H134.254" stroke="#383D4D" stroke-width="13.3333" stroke-miterlimit="10" stroke-linecap="round"/>
<path d="M54 398H284V372" stroke="#383D4D" stroke-width="13.3333" stroke-miterlimit="10"/>
<path d="M85 373V428" stroke="#383D4D" stroke-width="13.3333" stroke-miterlimit="10"/>
<path d="M119 373V401" stroke="#383D4D" stroke-width="13.3333" stroke-miterlimit="10"/>
<path d="M152 373V398" stroke="#383D4D" stroke-width="13.3333" stroke-miterlimit="10"/>
<path d="M184 373V398" stroke="#383D4D" stroke-width="13.3333" stroke-miterlimit="10"/>
<path d="M219 373V428" stroke="#383D4D" stroke-width="13.3333" stroke-miterlimit="10"/>
<path d="M252 373V428" stroke="#383D4D" stroke-width="13.3333" stroke-miterlimit="10"/>
<path d="M312.119 320H286.888C284.74 320 283 318.207 283 316C283 313.785 284.74 312 286.888 312H312.119C314.26 312 316 313.785 316 316C316 318.207 314.26 320 312.119 320Z" fill="#383D4D"/>
<path d="M481.611 398H408.381C399.333 398 392 390.417 392 381.071V189.921C392 180.574 399.333 173 408.381 173H481.611C490.667 173 498 180.574 498 189.921V381.071C498 390.417 490.667 398 481.611 398Z" fill="#CBE2EE"/>
<path d="M449 171.108C449 172.154 448.21 173 447.235 173H422.764C421.79 173 421 172.154 421 171.108V170.892C421 169.846 421.79 169 422.764 169H447.235C448.21 169 449 169.846 449 170.892V171.108Z" fill="#383D4D"/>
<path d="M475.657 372H386.343C382.292 372 379 368.615 379 364.432V188.576C379 184.393 382.292 181 386.343 181H475.657C479.716 181 483 184.393 483 188.576V364.432C483 368.615 479.716 372 475.657 372Z" fill="#81BDC7"/>
<path d="M475.657 372H386.343C382.292 372 379 368.615 379 364.432V188.576C379 184.393 382.292 181 386.343 181H475.657C479.716 181 483 184.393 483 188.576V364.432C483 368.615 479.716 372 475.657 372Z" stroke="#383D4D" stroke-width="4.90001" stroke-miterlimit="10"/>
<path d="M411 171.505C411 170.118 411.9 169 413 169C414.108 169 415 170.118 415 171.505C415 172.882 414.108 174 413 174C411.9 174 411 172.882 411 171.505Z" fill="#383D4D"/>
<path d="M473.219 391H387.78C377.956 391 370 382.785 370 372.642V177.358C370 167.215 377.956 159 387.78 159H473.219C483.043 159 491 167.215 491 177.358V372.642C491 382.785 483.043 391 473.219 391Z" stroke="#383D4D" stroke-width="10.8021" stroke-miterlimit="10"/>
<path d="M66 181.948V280.044C66 289.41 73.3357 297 82.3798 297H288.62C297.664 297 305 289.41 305 280.044V181.948C305 172.59 297.664 165 288.62 165H82.3798C73.3357 165 66 172.59 66 181.948Z" fill="#81BDC7"/>
<path d="M46 145V299H318V145H46Z" stroke="#383D4D" stroke-width="10.6667" stroke-miterlimit="10"/>
<path d="M343 447H28V352H343V447Z" stroke="#383D4D" stroke-width="14.3199" stroke-miterlimit="10"/>
<path d="M431 391V420H343" stroke="#383D4D" stroke-width="11.9421" stroke-miterlimit="10"/>
<path d="M467.581 215H395.419C390.768 215 387 211.195 387 206.5C387 201.805 390.768 198 395.419 198H467.581C472.232 198 476 201.805 476 206.5C476 211.195 472.232 215 467.581 215Z" fill="#F8FCFD"/>
<path d="M343 134H431V157" stroke="#383D4D" stroke-width="11.081" stroke-miterlimit="10"/>
<path d="M215.449 106.877C215.481 106.803 215.521 106.737 215.57 106.671C220.248 100.204 223 92.3306 223 83.8249C223 61.8333 204.648 44 182.004 44C159.36 44 141 61.8333 141 83.8249C141 92.3389 142.661 101.288 147.339 107.772C147.379 107.822 147.411 107.871 147.436 107.929L180.319 167.025C181.049 168.34 182.919 168.323 183.625 166.984L215.449 106.877Z" fill="#EF3744"/>
<path d="M215.449 106.877C215.481 106.803 215.521 106.737 215.57 106.671C220.248 100.204 223 92.3306 223 83.8249C223 61.8333 204.648 44 182.004 44C159.36 44 141 61.8333 141 83.8249C141 92.3389 142.661 101.288 147.339 107.772C147.379 107.822 147.411 107.871 147.436 107.929L180.319 167.025C181.049 168.34 182.919 168.323 183.625 166.984L215.449 106.877Z" stroke="#383D4D" stroke-width="11.8237" stroke-miterlimit="10"/>
<path d="M164 83.4958C164 73.2846 172.057 65 182 65C191.943 65 200 73.2846 200 83.4958C200 93.7155 191.943 102 182 102C172.057 102 164 93.7155 164 83.4958Z" fill="white"/>
<path d="M164 83.4958C164 73.2846 172.057 65 182 65C191.943 65 200 73.2846 200 83.4958C200 93.7155 191.943 102 182 102C172.057 102 164 93.7155 164 83.4958Z" stroke="#383D4D" stroke-width="11.8237" stroke-miterlimit="10"/>
<path d="M243.215 198H273V250H100V198H243.215Z" fill="white"/>
<path d="M243.215 198H273V250H100V198H243.215Z" stroke="#383D4D" stroke-width="9.16672" stroke-miterlimit="10"/>
<path d="M405 275.5C405 261.417 416.193 250 430 250C443.807 250 455 261.417 455 275.5C455 289.583 443.807 301 430 301C416.193 301 405 289.583 405 275.5Z" fill="#59C13A"/>
<path d="M405 275.5C405 261.417 416.193 250 430 250C443.807 250 455 261.417 455 275.5C455 289.583 443.807 301 430 301C416.193 301 405 289.583 405 275.5Z" stroke="#383D4D" stroke-width="5.66984" stroke-miterlimit="10"/>
<path d="M430.353 288C429.298 288 428.282 287.454 427.574 286.73L413.946 272.748C412.576 271.356 412.71 269.173 414.245 267.936C415.772 266.69 418.126 266.796 419.496 268.188L430.172 279.075L452.358 253.294C453.617 251.829 455.956 251.568 457.578 252.716C459.191 253.873 459.475 255.998 458.207 257.472L433.282 286.567C432.597 287.357 431.573 288 430.471 288C430.432 288 430.392 288 430.353 288Z" fill="#383D4D"/>
<path d="M134.659 239.067L128.037 211.526C127.846 210.747 128.418 210 129.203 210H132.954C133.517 210 134.001 210.398 134.128 210.958L137.412 225.82C137.689 227.07 139.41 227.11 139.743 225.877L143.757 210.901C143.899 210.373 144.367 210 144.915 210H150.324C150.871 210 151.347 210.381 151.49 210.917L155.312 226.055C155.63 227.305 157.367 227.273 157.644 226.023L160.975 210.958C161.102 210.398 161.586 210 162.149 210H165.798C166.575 210 167.154 210.755 166.964 211.526L160.222 239.075C160.087 239.619 159.611 240 159.056 240H154.432C153.893 240 153.425 239.635 153.282 239.099L148.658 221.891C148.333 220.69 146.667 220.69 146.342 221.891L141.742 239.099C141.599 239.635 141.124 240 140.584 240H135.825C135.27 240 134.794 239.619 134.659 239.067Z" fill="#383D4D"/>
<path d="M174.665 239.067L168.034 211.526C167.852 210.747 168.423 210 169.2 210H172.96C173.515 210 174.007 210.398 174.126 210.958L177.417 225.82C177.687 227.07 179.416 227.11 179.741 225.877L183.755 210.901C183.898 210.373 184.374 210 184.913 210H190.33C190.878 210 191.353 210.381 191.488 210.917L195.319 226.055C195.629 227.305 197.374 227.273 197.651 226.023L200.983 210.958C201.11 210.398 201.593 210 202.156 210H205.797C206.582 210 207.154 210.755 206.963 211.526L200.229 239.075C200.094 239.619 199.61 240 199.063 240H194.439C193.9 240 193.424 239.635 193.281 239.099L188.665 221.891C188.339 220.69 186.674 220.69 186.349 221.891L181.748 239.099C181.605 239.635 181.13 240 180.59 240H175.823C175.276 240 174.792 239.619 174.665 239.067Z" fill="#383D4D"/>
<path d="M214.83 239.067L208.037 211.526C207.842 210.747 208.436 210 209.233 210H213.081C213.658 210 214.155 210.398 214.285 210.958L217.652 225.82C217.937 227.07 219.702 227.11 220.044 225.877L224.16 210.901C224.307 210.373 224.795 210 225.348 210H230.896C231.457 210 231.945 210.381 232.091 210.917L236.012 226.055C236.338 227.305 238.119 227.273 238.404 226.023L241.829 210.958C241.951 210.398 242.447 210 243.024 210H246.766C247.572 210 248.157 210.755 247.962 211.526L241.048 239.075C240.91 239.619 240.421 240 239.852 240H235.118C234.556 240 234.076 239.635 233.93 239.099L229.187 221.891C228.862 220.69 227.146 220.69 226.82 221.891L222.094 239.099C221.948 239.635 221.468 240 220.906 240H216.026C215.456 240 214.968 239.619 214.83 239.067Z" fill="#383D4D"/>
</svg>
